<svg width="25" height="25" viewBox="0 0 25 25" fill="none" xmlns="http://www.w3.org/2000/svg">
<path d="M24.6328 12.4741C24.6328 10.1007 23.929 7.78067 22.6104 5.80728C21.2919 3.83389 19.4177 2.29582 17.225 1.38757C15.0323 0.47932 12.6195 0.241681 10.2917 0.704703C7.96396 1.16773 5.82577 2.31061 4.14754 3.98884C2.46931 5.66707 1.32642 7.80527 0.863395 10.133C0.400372 12.4608 0.638012 14.8736 1.54626 17.0663C2.45451 19.259 3.99258 21.1332 5.96597 22.4518C7.93936 23.7703 10.2594 24.4741 12.6328 24.4741C15.8135 24.4678 18.862 23.2015 21.1111 20.9524C23.3602 18.7033 24.6265 15.6548 24.6328 12.4741ZM13.1128 23.5021V14.8741H16.4728C16.6001 14.8741 16.7222 14.8236 16.8122 14.7335C16.9022 14.6435 16.9528 14.5214 16.9528 14.3941C16.9528 14.2668 16.9022 14.1447 16.8122 14.0547C16.7222 13.9647 16.6001 13.9141 16.4728 13.9141H13.1128V10.5541C13.116 9.91858 13.3698 9.30996 13.8192 8.86055C14.2686 8.41115 14.8773 8.15728 15.5128 8.15413H17.4328C17.5601 8.15413 17.6822 8.10355 17.7722 8.01354C17.8622 7.92352 17.9128 7.80143 17.9128 7.67413C17.9128 7.54682 17.8622 7.42473 17.7722 7.33471C17.6822 7.2447 17.5601 7.19413 17.4328 7.19413H15.5128C14.6227 7.19729 13.7699 7.5523 13.1404 8.18174C12.511 8.81118 12.156 9.66397 12.1528 10.5541V13.9141H8.79282C8.66551 13.9141 8.54342 13.9647 8.4534 14.0547C8.36339 14.1447 8.31282 14.2668 8.31282 14.3941C8.31282 14.5214 8.36339 14.6435 8.4534 14.7335C8.54342 14.8236 8.66551 14.8741 8.79282 14.8741H12.1528V23.5021C9.26913 23.3766 6.54927 22.1268 4.57592 20.0203C2.60256 17.9138 1.53266 15.1182 1.59543 12.2325C1.65819 9.34677 2.84862 6.60038 4.9117 4.58169C6.97477 2.563 9.7464 1.43257 12.6328 1.43257C15.5192 1.43257 18.2909 2.563 20.3539 4.58169C22.417 6.60038 23.6074 9.34677 23.6702 12.2325C23.733 15.1182 22.6631 17.9138 20.6897 20.0203C18.7164 22.1268 15.9965 23.3766 13.1128 23.5021Z" fill="#393939"/>
</svg>
