<svg width="25" height="25" viewBox="0 0 25 25" fill="none" xmlns="http://www.w3.org/2000/svg">
<path d="M8.63281 6.47412C8.63281 6.6719 8.57416 6.86524 8.46428 7.02969C8.3544 7.19414 8.19822 7.32231 8.0155 7.398C7.83277 7.47369 7.6317 7.49349 7.43772 7.45491C7.24374 7.41632 7.06556 7.32108 6.92571 7.18123C6.78585 7.04138 6.69061 6.86319 6.65203 6.66921C6.61344 6.47523 6.63325 6.27416 6.70893 6.09144C6.78462 5.90871 6.91279 5.75253 7.07724 5.64265C7.24169 5.53277 7.43503 5.47412 7.63281 5.47412C7.89803 5.47412 8.15238 5.57948 8.33992 5.76701C8.52746 5.95455 8.63281 6.2089 8.63281 6.47412ZM7.63281 9.97412C7.5002 9.97412 7.37303 10.0268 7.27926 10.1206C7.18549 10.2143 7.13281 10.3415 7.13281 10.4741V18.4741C7.13281 18.6067 7.18549 18.7339 7.27926 18.8277C7.37303 18.9214 7.5002 18.9741 7.63281 18.9741C7.76542 18.9741 7.8926 18.9214 7.98637 18.8277C8.08013 18.7339 8.13281 18.6067 8.13281 18.4741V10.4741C8.13281 10.3415 8.08013 10.2143 7.98637 10.1206C7.8926 10.0268 7.76542 9.97412 7.63281 9.97412ZM15.1328 9.97412C14.5644 9.97354 14.0025 10.0949 13.485 10.3299C12.9675 10.5649 12.5064 10.9082 12.1328 11.3366V10.4741C12.1328 10.3415 12.0801 10.2143 11.9864 10.1206C11.8926 10.0268 11.7654 9.97412 11.6328 9.97412C11.5002 9.97412 11.373 10.0268 11.2793 10.1206C11.1855 10.2143 11.1328 10.3415 11.1328 10.4741V18.4741C11.1328 18.6067 11.1855 18.7339 11.2793 18.8277C11.373 18.9214 11.5002 18.9741 11.6328 18.9741C11.7654 18.9741 11.8926 18.9214 11.9864 18.8277C12.0801 18.7339 12.1328 18.6067 12.1328 18.4741V13.9741C12.1328 13.1785 12.4489 12.4154 13.0115 11.8528C13.5741 11.2902 14.3372 10.9741 15.1328 10.9741C15.9285 10.9741 16.6915 11.2902 17.2541 11.8528C17.8167 12.4154 18.1328 13.1785 18.1328 13.9741V18.4741C18.1328 18.6067 18.1855 18.7339 18.2793 18.8277C18.373 18.9214 18.5002 18.9741 18.6328 18.9741C18.7654 18.9741 18.8926 18.9214 18.9864 18.8277C19.0801 18.7339 19.1328 18.6067 19.1328 18.4741V13.9741C19.1295 12.9143 18.707 11.8988 17.9576 11.1493C17.2082 10.3999 16.1927 9.97742 15.1328 9.97412ZM24.6328 1.97412V22.9741C24.6328 23.3719 24.4748 23.7535 24.1935 24.0348C23.9122 24.3161 23.5306 24.4741 23.1328 24.4741H2.13281C1.73499 24.4741 1.35346 24.3161 1.07215 24.0348C0.790848 23.7535 0.632812 23.3719 0.632812 22.9741V1.97412C0.632812 1.5763 0.790848 1.19477 1.07215 0.913461C1.35346 0.632156 1.73499 0.474121 2.13281 0.474121H23.1328C23.5306 0.474121 23.9122 0.632156 24.1935 0.913461C24.4748 1.19477 24.6328 1.5763 24.6328 1.97412ZM23.6328 1.97412C23.6328 1.84151 23.5801 1.71434 23.4864 1.62057C23.3926 1.5268 23.2654 1.47412 23.1328 1.47412H2.13281C2.0002 1.47412 1.87303 1.5268 1.77926 1.62057C1.68549 1.71434 1.63281 1.84151 1.63281 1.97412V22.9741C1.63281 23.1067 1.68549 23.2339 1.77926 23.3277C1.87303 23.4214 2.0002 23.4741 2.13281 23.4741H23.1328C23.2654 23.4741 23.3926 23.4214 23.4864 23.3277C23.5801 23.2339 23.6328 23.1067 23.6328 22.9741V1.97412Z" fill="#393939"/>
</svg>
