<svg width="70" height="70" viewBox="0 0 70 70" fill="none" xmlns="http://www.w3.org/2000/svg">
<path d="M20.4163 26.25C22.3502 26.25 24.2049 25.4818 25.5723 24.1144C26.9398 22.7469 27.708 20.8922 27.708 18.9584C27.708 17.0245 26.9398 15.1698 25.5723 13.8024C24.2049 12.4349 22.3502 11.6667 20.4163 11.6667C18.4825 11.6667 16.6278 12.4349 15.2604 13.8024C13.8929 15.1698 13.1247 17.0245 13.1247 18.9584C13.1247 20.8922 13.8929 22.7469 15.2604 24.1144C16.6278 25.4818 18.4825 26.25 20.4163 26.25ZM20.4163 32.0834C18.6927 32.0834 16.986 31.7439 15.3936 31.0843C13.8012 30.4247 12.3543 29.4579 11.1356 28.2391C9.9168 27.0204 8.95001 25.5735 8.29042 23.9811C7.63083 22.3887 7.29134 20.682 7.29134 18.9584C7.29134 17.2348 7.63083 15.5281 8.29042 13.9357C8.95001 12.3433 9.9168 10.8964 11.1356 9.6776C12.3543 8.45883 13.8012 7.49205 15.3936 6.83246C16.986 6.17286 18.6927 5.83337 20.4163 5.83337C23.8973 5.83337 27.2357 7.21618 29.6971 9.6776C32.1585 12.139 33.5413 15.4774 33.5413 18.9584C33.5413 22.4393 32.1585 25.7777 29.6971 28.2391C27.2357 30.7006 23.8973 32.0834 20.4163 32.0834ZM51.0413 37.9167C52.5884 37.9167 54.0722 37.3021 55.1661 36.2082C56.2601 35.1142 56.8747 33.6305 56.8747 32.0834C56.8747 30.5363 56.2601 29.0525 55.1661 27.9586C54.0722 26.8646 52.5884 26.25 51.0413 26.25C49.4942 26.25 48.0105 26.8646 46.9166 27.9586C45.8226 29.0525 45.208 30.5363 45.208 32.0834C45.208 33.6305 45.8226 35.1142 46.9166 36.2082C48.0105 37.3021 49.4942 37.9167 51.0413 37.9167ZM51.0413 43.75C47.9472 43.75 44.9797 42.5209 42.7918 40.333C40.6038 38.145 39.3747 35.1776 39.3747 32.0834C39.3747 28.9892 40.6038 26.0217 42.7918 23.8338C44.9797 21.6459 47.9472 20.4167 51.0413 20.4167C54.1355 20.4167 57.103 21.6459 59.2909 23.8338C61.4788 26.0217 62.708 28.9892 62.708 32.0834C62.708 35.1776 61.4788 38.145 59.2909 40.333C57.103 42.5209 54.1355 43.75 51.0413 43.75ZM58.333 61.25V59.7917C58.333 57.8578 57.5648 56.0032 56.1973 54.6357C54.8299 53.2683 52.9752 52.5 51.0413 52.5C49.1075 52.5 47.2528 53.2683 45.8854 54.6357C44.5179 56.0032 43.7497 57.8578 43.7497 59.7917V61.25H37.9163V59.7917C37.9163 58.0681 38.2558 56.3614 38.9154 54.769C39.575 53.1766 40.5418 51.7297 41.7606 50.5109C42.9793 49.2922 44.4262 48.3254 46.0186 47.6658C47.611 47.0062 49.3177 46.6667 51.0413 46.6667C52.7649 46.6667 54.4717 47.0062 56.0641 47.6658C57.6565 48.3254 59.1033 49.2922 60.3221 50.5109C61.5409 51.7297 62.5077 53.1766 63.1673 54.769C63.8269 56.3614 64.1663 58.0681 64.1663 59.7917V61.25H58.333ZM29.1663 61.25V49.5834C29.1663 48.4343 28.94 47.2965 28.5003 46.2349C28.0606 45.1733 27.416 44.2087 26.6035 43.3962C25.791 42.5837 24.8264 41.9392 23.7648 41.4994C22.7032 41.0597 21.5654 40.8334 20.4163 40.8334C19.2673 40.8334 18.1295 41.0597 17.0679 41.4994C16.0063 41.9392 15.0417 42.5837 14.2292 43.3962C13.4166 44.2087 12.7721 45.1733 12.3324 46.2349C11.8927 47.2965 11.6663 48.4343 11.6663 49.5834V61.25H5.83301V49.5834C5.83301 45.7156 7.36946 42.0063 10.1044 39.2714C12.8393 36.5365 16.5486 35 20.4163 35C24.2841 35 27.9934 36.5365 30.7283 39.2714C33.4632 42.0063 34.9997 45.7156 34.9997 49.5834V61.25H29.1663Z" fill="#FFA753"/>
</svg>
