<svg width="70" height="70" viewBox="0 0 70 70" fill="none" xmlns="http://www.w3.org/2000/svg">
<path d="M61.9418 15.4246L35.6918 6.67465C35.2427 6.52495 34.7573 6.52495 34.3082 6.67465L8.0582 15.4246C7.62263 15.5699 7.24379 15.8484 6.97535 16.2209C6.7069 16.5934 6.56247 17.0409 6.5625 17.5V39.375C6.5625 39.9552 6.79297 40.5116 7.2032 40.9218C7.61344 41.3321 8.16984 41.5625 8.75 41.5625C9.33016 41.5625 9.88656 41.3321 10.2968 40.9218C10.707 40.5116 10.9375 39.9552 10.9375 39.375V20.5352L20.1223 23.595C17.682 27.5374 16.906 32.2871 17.9647 36.8012C19.0233 41.3153 21.8301 45.2247 25.7687 47.6711C20.8469 49.6016 16.5922 53.0934 13.4805 57.8676C13.3186 58.1081 13.2062 58.3784 13.1498 58.6628C13.0933 58.9471 13.094 59.2399 13.1516 59.524C13.2093 59.8081 13.3229 60.0779 13.4858 60.3177C13.6486 60.5575 13.8575 60.7626 14.1004 60.921C14.3432 61.0793 14.615 61.1879 14.9002 61.2403C15.1853 61.2926 15.478 61.2878 15.7613 61.2261C16.0445 61.1643 16.3127 61.0469 16.5501 60.8806C16.7876 60.7143 16.9896 60.5025 17.1445 60.2575C21.2652 53.9356 27.773 50.3125 35 50.3125C42.227 50.3125 48.7348 53.9356 52.8555 60.2575C53.1763 60.7343 53.6719 61.0657 54.2352 61.1801C54.7984 61.2944 55.3841 61.1825 55.8654 60.8685C56.3468 60.5546 56.6853 60.0637 56.8077 59.5022C56.9301 58.9406 56.8266 58.3535 56.5195 57.8676C53.4078 53.0934 49.1367 49.6016 44.2312 47.6711C48.1661 45.2248 50.9702 41.3179 52.0287 36.8071C53.0872 32.2964 52.3137 27.5499 49.8777 23.6086L61.9418 19.5891C62.3775 19.444 62.7564 19.1654 63.0249 18.793C63.2935 18.4205 63.438 17.9729 63.438 17.5137C63.438 17.0545 63.2935 16.607 63.0249 16.2345C62.7564 15.862 62.3775 15.5834 61.9418 15.4383V15.4246ZM48.125 32.8125C48.1256 34.8875 47.6342 36.9331 46.6911 38.7814C45.7481 40.6297 44.3802 42.2281 42.6998 43.4454C41.0194 44.6627 39.0743 45.4642 37.0241 45.7842C34.974 46.1043 32.8771 45.9336 30.9057 45.2863C28.9342 44.639 27.1443 43.5335 25.6829 42.0605C24.2214 40.5875 23.13 38.789 22.4982 36.8126C21.8664 34.8361 21.7122 32.738 22.0483 30.6904C22.3844 28.6428 23.2012 26.704 24.4316 25.0332L34.3082 28.3145C34.7573 28.4642 35.2427 28.4642 35.6918 28.3145L45.5684 25.0332C47.2303 27.2864 48.1263 30.0128 48.125 32.8125ZM35 23.945L15.668 17.5L35 11.0551L54.332 17.5L35 23.945Z" fill="#4AE49D"/>
</svg>
