<svg width="68" height="68" viewBox="0 0 68 68" fill="none" xmlns="http://www.w3.org/2000/svg">
<path d="M56.6667 48.1666C58.1696 48.1666 59.6109 47.5696 60.6736 46.5069C61.7363 45.4442 62.3333 44.0029 62.3333 42.5V11.3333C62.3333 9.8304 61.7363 8.38906 60.6736 7.32635C59.6109 6.26365 58.1696 5.66663 56.6667 5.66663H26.8033C27.795 7.39496 28.3333 9.34996 28.3333 11.3333H56.6667V42.5H31.1667V48.1666M42.5 19.8333V25.5H25.5V62.3333H19.8333V45.3333H14.1667V62.3333H8.5V39.6666H4.25V25.5C4.25 23.9971 4.84702 22.5557 5.90973 21.493C6.97243 20.4303 8.41377 19.8333 9.91667 19.8333H42.5ZM22.6667 11.3333C22.6667 12.8362 22.0696 14.2775 21.0069 15.3402C19.9442 16.4029 18.5029 17 17 17C15.4971 17 14.0558 16.4029 12.9931 15.3402C11.9304 14.2775 11.3333 12.8362 11.3333 11.3333C11.3333 9.8304 11.9304 8.38906 12.9931 7.32635C14.0558 6.26365 15.4971 5.66663 17 5.66663C18.5029 5.66663 19.9442 6.26365 21.0069 7.32635C22.0696 8.38906 22.6667 9.8304 22.6667 11.3333Z" fill="#6CCCFF"/>
</svg>
